REM DIRINDEX 1\8,1\2\11,1\3\12,1\3\14,1\5\15,1\5\16,1\6\17,1\6\18,1\4\19,1\4\20,1\4\21,1\4\22,1\7\23,1\7\24,1\7\25,1\2\9\26,1\2\9\27,1\2\10\28,1\2\10\29,1\2\10\30,1\2\10\31,1\2\10\32,1\3\13\33,1\3\13\34,1\3\13\35
REM DIRNAME folder01,folder02,folder03,folder04,folder05,folder06,folder07,folder08,folder09,folder10,folder11,folder12,folder13,folder14,folder15,folder16,folder17,folder18,folder19,folder20,folder21,folder22,folder23,folder24,folder25,folder26,folder27,folder28,folder29,folder30,folder31,folder32,folder33,folder34,folder35
TITLE ""
FILE "148 148_例文UNIT5_SET2.mp3" MP3
  TRACK 01 AUDIO
    TITLE "22:cjc123_3785"
    INDEX 01 00:00:00
  TRACK 02 AUDIO
    TITLE "0:"
    INDEX 01 00:02:49
  TRACK 03 AUDIO
    TITLE "19:cjc123_3786"
    INDEX 01 00:03:35
  TRACK 04 AUDIO
    TITLE "0:"
    INDEX 01 00:08:40
  TRACK 05 AUDIO
    TITLE "20:cjc123_3787"
    INDEX 01 00:08:70
  TRACK 06 AUDIO
    TITLE "0:"
    INDEX 01 00:13:67
  TRACK 07 AUDIO
    TITLE "21:cjc123_3788"
    INDEX 01 00:14:15
  TRACK 08 AUDIO
    TITLE "0:"
    INDEX 01 00:19:22
  TRACK 09 AUDIO
    TITLE "19:cjc123_3789"
    INDEX 01 00:19:71
  TRACK 10 AUDIO
    TITLE "0:"
    INDEX 01 00:24:02
  TRACK 11 AUDIO
    TITLE "20:cjc123_3790"
    INDEX 01 00:24:47
  TRACK 12 AUDIO
    TITLE "0:"
    INDEX 01 00:29:29
  TRACK 13 AUDIO
    TITLE "21:cjc123_3791"
    INDEX 01 00:29:66
  TRACK 14 AUDIO
    TITLE "0:"
    INDEX 01 00:33:71
  TRACK 15 AUDIO
    TITLE "19:cjc123_3792"
    INDEX 01 00:34:53
  TRACK 16 AUDIO
    TITLE "0:"
    INDEX 01 00:37:61
  TRACK 17 AUDIO
    TITLE "20:cjc123_3793"
    INDEX 01 00:38:16
  TRACK 18 AUDIO
    TITLE "0:"
    INDEX 01 00:42:04
  TRACK 19 AUDIO
    TITLE "21:cjc123_3794"
    INDEX 01 00:42:33
  TRACK 20 AUDIO
    TITLE "0:"
    INDEX 01 00:45:37
  TRACK 21 AUDIO
    TITLE "19:cjc123_3795"
    INDEX 01 00:46:11
  TRACK 22 AUDIO
    TITLE "0:"
    INDEX 01 00:49:35
  TRACK 23 AUDIO
    TITLE "20:cjc123_3796"
    INDEX 01 00:49:70
  TRACK 24 AUDIO
    TITLE "0:"
    INDEX 01 00:53:31
  TRACK 25 AUDIO
    TITLE "21:cjc123_3797"
    INDEX 01 00:53:58
  TRACK 26 AUDIO
    TITLE "0:"
    INDEX 01 00:57:05
  TRACK 27 AUDIO
    TITLE "19:cjc123_3798"
    INDEX 01 00:57:62
  TRACK 28 AUDIO
    TITLE "0:"
    INDEX 01 01:02:26
  TRACK 29 AUDIO
    TITLE "20:cjc123_3799"
    INDEX 01 01:02:48
  TRACK 30 AUDIO
    TITLE "0:"
    INDEX 01 01:06:10
  TRACK 31 AUDIO
    TITLE "21:cjc123_3800"
    INDEX 01 01:06:40
  TRACK 32 AUDIO
    TITLE "0:"
    INDEX 01 01:11:02
  TRACK 33 AUDIO
    TITLE "19:cjc123_3801"
    INDEX 01 01:11:54
  TRACK 34 AUDIO
    TITLE "0:"
    INDEX 01 01:17:26
  TRACK 35 AUDIO
    TITLE "20:cjc123_3802"
    INDEX 01 01:17:47
  TRACK 36 AUDIO
    TITLE "0:"
    INDEX 01 01:23:05
  TRACK 37 AUDIO
    TITLE "21:cjc123_3803"
    INDEX 01 01:23:32
  TRACK 38 AUDIO
    TITLE "0:"
    INDEX 01 01:29:01
  TRACK 39 AUDIO
    TITLE "19:cjc123_3804"
    INDEX 01 01:29:45
  TRACK 40 AUDIO
    TITLE "0:"
    INDEX 01 01:34:67
  TRACK 41 AUDIO
    TITLE "20:cjc123_3805"
    INDEX 01 01:35:24
  TRACK 42 AUDIO
    TITLE "0:"
    INDEX 01 01:40:19
  TRACK 43 AUDIO
    TITLE "21:cjc123_3806"
    INDEX 01 01:40:50
  TRACK 44 AUDIO
    TITLE "0:"
    INDEX 01 01:45:71
  TRACK 45 AUDIO
    TITLE "19:cjc123_3807"
    INDEX 01 01:46:70
  TRACK 46 AUDIO
    TITLE "0:"
    INDEX 01 01:50:31
  TRACK 47 AUDIO
    TITLE "20:cjc123_3808"
    INDEX 01 01:50:62
  TRACK 48 AUDIO
    TITLE "0:"
    INDEX 01 01:55:16
  TRACK 49 AUDIO
    TITLE "21:cjc123_3809"
    INDEX 01 01:55:52
  TRACK 50 AUDIO
    TITLE "0:"
    INDEX 01 01:59:16
  TRACK 51 AUDIO
    TITLE "19:cjc123_3810"
    INDEX 01 02:00:12
  TRACK 52 AUDIO
    TITLE "0:"
    INDEX 01 02:05:13
  TRACK 53 AUDIO
    TITLE "20:cjc123_3811"
    INDEX 01 02:05:56
  TRACK 54 AUDIO
    TITLE "0:"
    INDEX 01 02:11:04
  TRACK 55 AUDIO
    TITLE "21:cjc123_3812"
    INDEX 01 02:11:37
  TRACK 56 AUDIO
    TITLE "0:"
    INDEX 01 02:16:40
  TRACK 57 AUDIO
    TITLE "19:cjc123_3813"
    INDEX 01 02:17:22
  TRACK 58 AUDIO
    TITLE "0:"
    INDEX 01 02:20:50
  TRACK 59 AUDIO
    TITLE "20:cjc123_3814"
    INDEX 01 02:21:20
  TRACK 60 AUDIO
    TITLE "0:"
    INDEX 01 02:24:49
  TRACK 61 AUDIO
    TITLE "21:cjc123_3815"
    INDEX 01 02:25:06
  TRACK 62 AUDIO
    TITLE "0:"
    INDEX 01 02:28:32
  TRACK 63 AUDIO
    TITLE "19:cjc123_3816"
    INDEX 01 02:29:43
  TRACK 64 AUDIO
    TITLE "0:"
    INDEX 01 02:34:67
  TRACK 65 AUDIO
    TITLE "20:cjc123_3817"
    INDEX 01 02:35:36
  TRACK 66 AUDIO
    TITLE "0:"
    INDEX 01 02:39:71
  TRACK 67 AUDIO
    TITLE "21:cjc123_3818"
    INDEX 01 02:40:23
  TRACK 68 AUDIO
    TITLE "0:"
    INDEX 01 02:45:50
  TRACK 69 AUDIO
    TITLE "19:cjc123_3819"
    INDEX 01 02:46:55
  TRACK 70 AUDIO
    TITLE "0:"
    INDEX 01 02:51:01
  TRACK 71 AUDIO
    TITLE "20:cjc123_3820"
    INDEX 01 02:51:33
  TRACK 72 AUDIO
    TITLE "0:"
    INDEX 01 02:54:64
  TRACK 73 AUDIO
    TITLE "21:cjc123_3821"
    INDEX 01 02:55:19
  TRACK 74 AUDIO
    TITLE "0:"
    INDEX 01 02:59:40
  TRACK 75 AUDIO
    TITLE "19:cjc123_3822"
    INDEX 01 03:00:12
  TRACK 76 AUDIO
    TITLE "0:"
    INDEX 01 03:05:13
  TRACK 77 AUDIO
    TITLE "20:cjc123_3823"
    INDEX 01 03:05:50
  TRACK 78 AUDIO
    TITLE "0:"
    INDEX 01 03:09:68
  TRACK 79 AUDIO
    TITLE "21:cjc123_3824"
    INDEX 01 03:10:20
  TRACK 80 AUDIO
    TITLE "0:"
    INDEX 01 03:15:19
  TRACK 81 AUDIO
    TITLE "19:cjc123_3825"
    INDEX 01 03:16:07
  TRACK 82 AUDIO
    TITLE "0:"
    INDEX 01 03:21:61
  TRACK 83 AUDIO
    TITLE "20:cjc123_3826"
    INDEX 01 03:22:27
  TRACK 84 AUDIO
    TITLE "0:"
    INDEX 01 03:26:23
  TRACK 85 AUDIO
    TITLE "21:cjc123_3827"
    INDEX 01 03:26:54
  TRACK 86 AUDIO
    TITLE "0:"
    INDEX 01 03:32:37
  TRACK 87 AUDIO
    TITLE "19:cjc123_3828"
    INDEX 01 03:33:17
  TRACK 88 AUDIO
    TITLE "0:"
    INDEX 01 03:37:25
  TRACK 89 AUDIO
    TITLE "20:cjc123_3829"
    INDEX 01 03:37:60
  TRACK 90 AUDIO
    TITLE "0:"
    INDEX 01 03:41:56
  TRACK 91 AUDIO
    TITLE "21:cjc123_3830"
    INDEX 01 03:42:08
  TRACK 92 AUDIO
    TITLE "0:"
    INDEX 01 03:46:16
